<svg version="1.1" xmlns="http://www.w3.org/2000/svg" xmlns:xlink="http://www.w3.org/1999/xlink" width="540" height="378" viewBox="0,0,540,378"><g transform="translate(30,9)"><g data-paper-data="{&quot;isPaintingLayer&quot;:true}" stroke-miterlimit="10" stroke-dasharray="" stroke-dashoffset="0" style="mix-blend-mode: normal"><path d="M-30,369v-378h540v378z" fill="#ffffff" fill-rule="nonzero" stroke="none" stroke-width="none" stroke-linecap="butt" stroke-linejoin="miter"/><path d="M60.32385,262.1209l75.00577,-75.00577" fill="none" fill-rule="nonzero" stroke="#000000" stroke-width="2.5" stroke-linecap="round" stroke-linejoin="miter"/><text transform="translate(44.54486,151.77908) scale(0.5556,0.5556)" font-size="40" xml:space="preserve" fill="#39ace2" fill-rule="nonzero" stroke="none" stroke-width="1" stroke-linecap="butt" stroke-linejoin="miter" stroke-miterlimit="10" stroke-dasharray="" stroke-dashoffset="0" font-family="Sans Serif" font-weight="normal" text-anchor="start" style="mix-blend-mode: normal"><tspan x="0" dy="0">public</tspan></text><text transform="translate(116.77264,151.77909) scale(0.5556,0.5556)" font-size="40" xml:space="preserve" fill="#e33939" fill-rule="nonzero" stroke="none" stroke-width="1" stroke-linecap="butt" stroke-linejoin="miter" stroke-miterlimit="10" stroke-dasharray="" stroke-dashoffset="0" font-family="Sans Serif" font-weight="normal" text-anchor="start" style="mix-blend-mode: normal"><tspan x="0" dy="0">static</tspan></text><text transform="translate(185.66683,152.89029) scale(0.5556,0.5556)" font-size="40" xml:space="preserve" fill="#e339e3" fill-rule="nonzero" stroke="none" stroke-width="1" stroke-linecap="butt" stroke-linejoin="miter" stroke-miterlimit="10" stroke-dasharray="" stroke-dashoffset="0" font-family="Sans Serif" font-weight="normal" text-anchor="start" style="mix-blend-mode: normal"><tspan x="0" dy="0">void</tspan></text><text transform="translate(243.44905,152.89029) scale(0.5556,0.5556)" font-size="40" xml:space="preserve" fill="#000000" fill-rule="nonzero" stroke="none" stroke-width="1" stroke-linecap="butt" stroke-linejoin="miter" stroke-miterlimit="10" stroke-dasharray="" stroke-dashoffset="0" font-family="Sans Serif" font-weight="normal" text-anchor="start" style="mix-blend-mode: normal"><tspan x="0" dy="0">main</tspan></text><text transform="translate(304.56486,152.89027) scale(0.5556,0.5556)" font-size="40" xml:space="preserve" fill="#000000" fill-rule="nonzero" stroke="none" stroke-width="1" stroke-linecap="butt" stroke-linejoin="miter" stroke-miterlimit="10" stroke-dasharray="" stroke-dashoffset="0" font-family="Sans Serif" font-weight="normal" text-anchor="start" style="mix-blend-mode: normal"><tspan x="0" dy="0">(                        )</tspan></text><text transform="translate(315.67683,152.89027) scale(0.5556,0.5556)" font-size="40" xml:space="preserve" fill="#00ca45" fill-rule="nonzero" stroke="none" stroke-width="1" stroke-linecap="butt" stroke-linejoin="miter" stroke-miterlimit="10" stroke-dasharray="" stroke-dashoffset="0" font-family="Sans Serif" font-weight="normal" text-anchor="start" style="mix-blend-mode: normal"><tspan x="0" dy="0">String</tspan></text><text transform="translate(399.01657,152.89027) scale(0.5556,0.5556)" font-size="40" xml:space="preserve" fill="#000000" fill-rule="nonzero" stroke="none" stroke-width="1" stroke-linecap="butt" stroke-linejoin="miter" stroke-miterlimit="10" stroke-dasharray="" stroke-dashoffset="0" font-family="Sans Serif" font-weight="normal" text-anchor="start" style="mix-blend-mode: normal"><tspan x="0" dy="0">args</tspan></text><text transform="translate(380.90406,153.22364) scale(0.5556,0.5556)" font-size="40" xml:space="preserve" fill="#006722" fill-rule="nonzero" stroke="none" stroke-width="1" stroke-linecap="butt" stroke-linejoin="miter" stroke-miterlimit="10" stroke-dasharray="" stroke-dashoffset="0" font-family="Sans Serif" font-weight="normal" text-anchor="start" style="mix-blend-mode: normal"><tspan x="0" dy="0">[]</tspan></text><text transform="translate(227.55893,66.55031) scale(0.5556,0.5556)" font-size="40" xml:space="preserve" fill="#006722" fill-rule="nonzero" stroke="none" stroke-width="1" stroke-linecap="butt" stroke-linejoin="miter" stroke-miterlimit="10" stroke-dasharray="" stroke-dashoffset="0" font-family="Sans Serif" font-weight="normal" text-anchor="start" style="mix-blend-mode: normal"><tspan x="0" dy="0"> </tspan></text><g fill-rule="evenodd"><path d="M28.82142,257.23164c0.66672,0.88896 3.66695,2.22239 -0.22224,4.66703c-4.00031,2.33351 -14.1122,5.55598 -24.00185,-3.22247c-10.66749,-9.55629 -5.00038,-22.55729 -0.11112,-23.00177c4.77815,-0.44448 2.88911,7.3339 6.33382,16.00123c4.88927,12.55652 17.33467,4.66703 18.00139,5.55598z" fill="#ffab19" stroke="#001026" stroke-width="1.2" stroke-linecap="round" stroke-linejoin="round"/><path d="M7.59756,241.45265c0.5556,4.88927 1.66679,8.22285 1.66679,8.22285c0,0 -1.77791,-2.22239 -4.44479,-1.77791c-3.22247,0.5556 -4.22255,3.22247 -4.33367,4.00031c-0.77784,-1.88903 -1.44456,-4.22255 -1.22232,-8.22285c0.5556,-3.88919 3.00023,-7.8895 5.77822,-7.44502c2.22239,0.44448 2.11127,2.22239 2.55575,5.22262z" fill="#ffffff" stroke="none" stroke-width="1" stroke-linecap="butt" stroke-linejoin="miter"/></g><path d="M34.04404,268.78809c-0.77784,1.00008 -3.00023,4.88927 -8.33397,8.22285c-3.66695,2.33351 -13.11212,-1.55568 -13.11212,-1.55568c1.00008,10.22301 -7.3339,10.00077 -8.88957,6.66718c-1.22232,-2.66687 -1.00008,-14.1122 1.44456,-15.00115c3.77807,-1.33344 8.88957,0.88896 13.44548,0.88896c1.33344,0 2.77799,-2.88911 5.88934,-6.00046c2.22239,-2.22239 5.1115,-6.33382 9.77853,-3.44471c4.00031,2.55575 1.88903,7.22278 -0.22224,10.22301z" fill="#ffab19" fill-rule="evenodd" stroke="#001026" stroke-width="1.2" stroke-linecap="round" stroke-linejoin="round"/><path d="M53.15662,245.23072c0.33336,2.44463 0.5556,11.77868 3.22247,13.22324c2.55575,1.33344 10.33413,-0.88896 10.77861,4.55591c0.44448,5.33374 -6.7783,5.44486 -12.77876,3.77807c-7.77838,-2.11127 -11.33421,-14.00108 -6.88942,-21.33497c1.66679,-2.55575 5.33374,-2.77799 5.6671,-0.22224z" fill="#ffab19" fill-rule="evenodd" stroke="#001026" stroke-width="1.2" stroke-linecap="round" stroke-linejoin="round"/><g fill-rule="evenodd"><path d="M50.37863,270.78824c0.66672,3.66695 -4.66703,12.00092 -4.66703,12.00092c0,0 6.66718,4.55591 2.44463,9.22293c-3.11135,3.44471 -5.55598,0.66672 -13.66772,-7.22278c-1.22232,-1.22232 -1.22232,-3.00023 -0.22224,-4.22255c2.33351,-2.66687 5.6671,-7.22278 3.44471,-9.33405c-3.11135,-2.22239 -6.66718,-4.44479 -8.88957,-5.77822c-9.11181,-5.33374 -2.44463,-11.8898 2.55575,-21.11274c2.66687,-5.00038 4.00031,-3.66695 10.66749,-2.33351c3.77807,0.5556 6.00046,0.88896 8.44509,0.77784c3.66695,-0.11112 3.00023,5.22262 2.00015,8.00062c0,0 -1.55568,4.11143 -3.00023,6.2227c-1.77791,2.66687 -3.77807,5.33374 -5.1115,6.33382c0,0 5.22262,3.88919 6.00046,7.44502z" fill="#ffab19" stroke="#001026" stroke-width="1.2" stroke-linecap="round" stroke-linejoin="round"/><path d="M43.52077,263.23533c0,0 -1.66679,-1.33344 -3.44471,-3.00023c-2.22239,-2.00015 -4.44479,-3.66695 -2.22239,-7.11166c2.00015,-2.66687 3.88919,-6.2227 8.88957,-3.00023c4.77815,3.00023 2.66687,5.77822 2.66687,5.77822c-2.44463,5.00038 -5.88934,7.3339 -5.88934,7.3339z" fill="#ffffff" stroke="none" stroke-width="1" stroke-linecap="butt" stroke-linejoin="miter"/></g><path d="M33.37732,248.78655c-2.44463,1.1112 -7.00054,-0.88896 -8.22285,-0.66672c-0.33336,0.11112 -2.33351,5.88934 -3.55583,9.33405c-1.66679,4.88927 -9.22293,3.44471 -9.66741,-1.66679c-0.33336,-4.77815 4.00031,-14.00108 5.44486,-15.66787c3.22247,-3.88919 14.17798,-0.76861 21.49754,1.17398" fill="#ffab19" fill-rule="evenodd" stroke="#001026" stroke-width="1.2" stroke-linecap="round" stroke-linejoin="round"/><g fill-rule="evenodd"><path d="M62.43512,178.00332c0.33336,-0.22224 0.88896,-0.11112 1.00008,0.33336l2.88911,11.8898c0,0 7.11166,5.22262 9.22293,8.88957c3.55583,6.11158 3.66695,11.11197 3.66695,11.11197c0,0 7.8895,2.33351 9.22293,8.66733c1.33344,6.33382 -3.55583,18.33474 -24.44633,22.44617c-20.8905,4.11143 -37.66956,-1.55568 -45.55906,-14.22332c-7.8895,-12.66764 4.55591,-27.77992 3.88919,-26.89096l-2.33351,-19.89042c-0.11112,-0.44448 0.44448,-0.77784 0.88896,-0.5556l13.44548,8.77845c0,0 5.00038,-1.88903 10.22301,-2.11127c3.11135,-0.22224 5.77822,0 8.33397,0.44448z" fill="#ffab19" stroke="#001026" stroke-width="1.2" stroke-linecap="butt" stroke-linejoin="miter"/><path d="M78.88083,210.6725c0,0 7.66726,2.00015 9.00069,8.33397c1.33344,6.33382 -4.00031,17.77915 -24.66856,21.77945c-26.89096,5.55598 -39.66972,-10.44525 -32.2247,-22.22393c7.44502,-11.8898 20.22378,-1.77791 29.55783,-2.44463c8.00062,-0.5556 8.88957,-7.55614 18.33474,-5.44486z" fill="#ffffff" stroke="none" stroke-width="1" stroke-linecap="butt" stroke-linejoin="miter"/><path d="M43.87813,222.56231c0,-0.44448 0.44448,-0.77784 0.88896,-0.66672c2.11127,0.77784 8.11174,2.55575 14.77891,3.00023c6.00046,0.33336 9.55629,0 11.22309,-0.33336c0.5556,-0.11112 1.00008,0.44448 0.77784,1.00008c-1.00008,3.00023 -5.22262,11.33421 -16.89019,10.66749c-10.11189,-1.1112 -11.11197,-8.22285 -10.77861,-13.66772z" fill="#ffffff" stroke="#001026" stroke-width="1.2" stroke-linecap="round" stroke-linejoin="round"/><path d="M99.32684,211.89482c-5.22262,4.22255 -13.22324,4.33367 -13.22324,4.33367" fill="none" stroke="#001026" stroke-width="1.2" stroke-linecap="round" stroke-linejoin="round"/><path d="M97.88229,224.34022c-7.00054,0.5556 -11.33421,-1.55568 -11.33421,-1.55568" fill="none" stroke="#001026" stroke-width="1.2" stroke-linecap="round" stroke-linejoin="round"/><path d="M60.1016,213.22826c2.33351,0 4.77815,0.22224 4.88927,1.00008c0.11112,1.55568 -1.55568,4.66703 -3.33359,4.77815c-2.00015,0.22224 -6.66718,-2.55575 -6.66718,-4.33367c-0.11112,-1.33344 2.88911,-1.44456 5.1115,-1.44456z" fill="#001026" stroke="#001026" stroke-width="1.2" stroke-linecap="round" stroke-linejoin="round"/><path d="M10.09776,211.56146c0,0 9.55629,3.11135 13.44548,6.55606" fill="none" stroke="#001026" stroke-width="1.2" stroke-linecap="round" stroke-linejoin="round"/><path d="M23.87659,222.00671c-4.77815,1.88903 -13.001,0.66672 -13.001,0.66672" fill="none" stroke="#001026" stroke-width="1.2" stroke-linecap="round" stroke-linejoin="round"/><g><path d="M73.21372,200.22726c3.22247,5.00038 3.33359,10.66749 0.22224,12.66764c-3.11135,2.00015 -8.22285,-0.33336 -11.55644,-5.33374c-3.22247,-5.00038 -3.33359,-10.66749 -0.22224,-12.66764c3.11135,-2.11127 8.33397,0.33336 11.55644,5.33374z" fill="#ffffff" stroke="#001026" stroke-width="1.2" stroke-linecap="round" stroke-linejoin="round"/><path d="M72.76924,206.56108c0,1.22232 -0.88896,2.22239 -2.00015,2.22239c-1.1112,0 -2.00015,-1.00008 -2.00015,-2.22239c0,-1.22232 0.88896,-2.22239 2.00015,-2.22239c1.1112,0 2.00015,1.00008 2.00015,2.22239" fill="#001026" stroke="none" stroke-width="1" stroke-linecap="butt" stroke-linejoin="miter"/></g><g><path d="M45.65605,203.33861c3.33359,4.88927 3.11135,10.88973 0.11112,13.001c-3.66695,2.11127 -8.55621,0.5556 -11.8898,-4.33367c-3.44471,-4.88927 -3.66695,-11.22309 -0.22224,-13.66772c3.44471,-2.55575 8.66733,0.11112 12.00092,5.00038z" fill="#ffffff" stroke="#001026" stroke-width="1.2" stroke-linecap="round" stroke-linejoin="round"/><path d="M44.98933,209.78355c0,1.22232 -0.88896,2.22239 -2.00015,2.22239c-1.1112,0 -2.00015,-1.00008 -2.00015,-2.22239c0,-1.22232 0.88896,-2.22239 2.00015,-2.22239c1.1112,0.11112 2.00015,1.00008 2.00015,2.22239" fill="#001026" stroke="none" stroke-width="1" stroke-linecap="butt" stroke-linejoin="miter"/></g></g><path d="M118.66167,310.45795l-2.77799,-48.89265l18.89034,-10.00077c0,0 6.32965,-21.86709 -3.11299,-33.0532c-11.465,-13.58188 -38.00128,-16.95064 -38.00128,-16.95064c0,0 29.86726,-4.25276 45.70061,6.92901c19.23601,13.58478 25.42743,43.07484 29.86076,43.07484c24.87305,0 92.22932,0 92.22932,0l-6.11158,68.33859z" fill="#ffffff" fill-rule="nonzero" stroke="#000000" stroke-width="2.5" stroke-linecap="butt" stroke-linejoin="miter"/><text transform="translate(120.88406,271.23519) scale(0.2859,0.2859)" font-size="40" xml:space="preserve" fill="#000000" fill-rule="nonzero" stroke="none" stroke-width="1" stroke-linecap="butt" stroke-linejoin="miter" stroke-miterlimit="10" stroke-dasharray="" stroke-dashoffset="0" font-family="Sans Serif" font-weight="normal" text-anchor="start" style="mix-blend-mode: normal"><tspan x="0" dy="0">喵喵，虽然看起来有点多</tspan><tspan x="0" dy="46.15px">但是不需要全理解，慢慢来</tspan><tspan x="0" dy="46.15px">朝华酱有问题可以问我喵！</tspan></text><text transform="translate(21.20973,81.77369) scale(0.5556,0.5556)" font-size="40" xml:space="preserve" fill="#000000" fill-rule="nonzero" stroke="none" stroke-width="1" stroke-linecap="butt" stroke-linejoin="miter" stroke-miterlimit="10" stroke-dasharray="" stroke-dashoffset="0" font-family="Sans Serif" font-weight="normal" text-anchor="start" style="mix-blend-mode: normal"><tspan x="0" dy="0">访问修饰符</tspan></text><path d="M73.65821,87.10744v38.33628" fill="none" fill-rule="nonzero" stroke="#000000" stroke-width="2" stroke-linecap="round" stroke-linejoin="miter"/><path d="M152.55316,159.89082l43.61447,43.61447" fill="none" fill-rule="nonzero" stroke="#000000" stroke-width="2" stroke-linecap="round" stroke-linejoin="miter"/><text transform="translate(197.33439,229.56284) scale(0.5556,0.5556)" font-size="40" xml:space="preserve" fill="#000000" fill-rule="nonzero" stroke="none" stroke-width="1" stroke-linecap="butt" stroke-linejoin="miter" stroke-miterlimit="10" stroke-dasharray="" stroke-dashoffset="0" font-family="Sans Serif" font-weight="normal" text-anchor="start" style="mix-blend-mode: normal"><tspan x="0" dy="0">关键字</tspan></text><path d="M209.22419,127.66611v-54.44863" fill="none" fill-rule="nonzero" stroke="#000000" stroke-width="2" stroke-linecap="round" stroke-linejoin="miter"/><text transform="translate(163.10953,62.10551) scale(0.5556,0.5556)" font-size="40" xml:space="preserve" fill="#000000" fill-rule="nonzero" stroke="none" stroke-width="1" stroke-linecap="butt" stroke-linejoin="miter" stroke-miterlimit="10" stroke-dasharray="" stroke-dashoffset="0" font-family="Sans Serif" font-weight="normal" text-anchor="start" style="mix-blend-mode: normal"><tspan x="0" dy="0">返回类型</tspan></text><path d="M265.33962,129.33291l59.17122,-59.17122" fill="none" fill-rule="nonzero" stroke="#000000" stroke-width="2" stroke-linecap="round" stroke-linejoin="miter"/><text transform="translate(286.45236,59.32752) scale(0.5556,0.5556)" font-size="40" xml:space="preserve" fill="#000000" fill-rule="nonzero" stroke="none" stroke-width="1" stroke-linecap="butt" stroke-linejoin="miter" stroke-miterlimit="10" stroke-dasharray="" stroke-dashoffset="0" font-family="Sans Serif" font-weight="normal" text-anchor="start" style="mix-blend-mode: normal"><tspan x="0" dy="0">函数名字</tspan></text><path d="M356.45774,163.2244v42.22547" fill="none" fill-rule="nonzero" stroke="#000000" stroke-width="2" stroke-linecap="round" stroke-linejoin="miter"/><text transform="translate(312.56548,235.45218) scale(0.5556,0.5556)" font-size="40" xml:space="preserve" fill="#000000" fill-rule="nonzero" stroke="none" stroke-width="1" stroke-linecap="butt" stroke-linejoin="miter" stroke-miterlimit="10" stroke-dasharray="" stroke-dashoffset="0" font-family="Sans Serif" font-weight="normal" text-anchor="start" style="mix-blend-mode: normal"><tspan x="0" dy="0">参数类型</tspan></text><path d="M410.35078,127.66611v-43.89227" fill="none" fill-rule="nonzero" stroke="#000000" stroke-width="2" stroke-linecap="round" stroke-linejoin="miter"/><text transform="translate(392.57163,60.43872) scale(0.5556,0.5556)" font-size="40" xml:space="preserve" fill="#000000" fill-rule="nonzero" stroke="none" stroke-width="1" stroke-linecap="butt" stroke-linejoin="miter" stroke-miterlimit="10" stroke-dasharray="" stroke-dashoffset="0" font-family="Sans Serif" font-weight="normal" text-anchor="start" style="mix-blend-mode: normal"><tspan x="0" dy="0">参数名字</tspan></text></g></g></svg>